# xmcd
#
# Track frame offsets: 
#        187
#        27037
#        47447
#        75515
#        96047
#        117612
#        141550
#        168550
#
# Disc length: 2565 seconds
#
# Revision: 3
# Processed by: cddbd v1.5.2PL0 Copyright (c) Steve Scherf et al.
# Submitted via: ExactAudioCopyFreeDBPlugin 1.0
#
DISCID=630a0308
DTITLE=LeVert - Bloodline
DYEAR=1986
DGENRE=R&B
TTITLE0=(Pop, Pop, Pop, Pop) Goes My Mind
TTITLE1=Fascination
TTITLE2=Pose
TTITLE3=I Start You Up, You Turn Me On
TTITLE4=Kiss and Make Up
TTITLE5=Let's Go Out Tonight
TTITLE6=Grip
TTITLE7=Looking for Love
EXTD=
EXTT0=
EXTT1=
EXTT2=
EXTT3=
EXTT4=
EXTT5=
EXTT6=
EXTT7=
PLAYORDER=
